<?xml version="1.0" encoding="utf-8"?>
<!-- Generator: Adobe Illustrator 22.0.1, SVG Export Plug-In . SVG Version: 6.00 Build 0)  -->
<svg version="1.1" id="圖層_1" xmlns="http://www.w3.org/2000/svg" xmlns:xlink="http://www.w3.org/1999/xlink" x="0px" y="0px"
	 viewBox="0 0 100 100" style="enable-background:new 0 0 100 100;" xml:space="preserve">
<style type="text/css">
	.st0{fill:#61A60E;}
	.st1{fill:#0071CE;}
</style>
<g>
	<rect x="11" y="65.4" class="st0" width="7.4" height="31"/>
	<rect x="24.7" y="65.4" class="st1" width="7.4" height="31"/>
	<rect x="39.5" y="65.4" class="st0" width="7.4" height="31"/>
	<rect x="53.2" y="65.4" class="st1" width="7.4" height="31"/>
	<rect x="67.9" y="65.4" class="st0" width="7.4" height="31"/>
	<rect x="81.6" y="65.4" class="st1" width="7.4" height="31"/>
	<g>
		<g>
			<path class="st1" d="M78.4,29.6c-5.8,0-10.5-4.7-10.5-10.5c0-5.8,4.7-10.5,10.5-10.5c5.8,0,10.5,4.7,10.5,10.5
				C88.9,24.9,84.2,29.6,78.4,29.6z M78.4,15c-2.3,0-4.1,1.8-4.1,4.1c0,2.3,1.8,4.1,4.1,4.1c2.3,0,4.1-1.8,4.1-4.1
				C82.5,16.8,80.7,15,78.4,15z"/>
		</g>
	</g>
	<polygon class="st1" points="25.2,3.6 39.5,65.4 32.1,65.4 17.8,3.6 	"/>
	<polygon class="st1" points="53.7,3.6 67.9,65.4 60.5,65.4 46.3,3.6 	"/>
	<polygon class="st0" points="17.8,3.6 3.6,65.4 11,65.4 25.2,3.6 	"/>
	<polygon class="st0" points="46.3,3.6 32.1,65.4 39.5,65.4 53.7,3.6 	"/>
	<g>
		<polygon class="st1" points="81.9,34.5 89,65.4 96.4,65.4 89.3,34.5 		"/>
		<polygon class="st0" points="60.5,65.4 67.9,65.4 75.1,34.5 67.6,34.5 		"/>
	</g>
</g>
</svg>
