<?xml version="1.0" encoding="UTF-8" standalone="no"?>
<svg
   xmlns:dc="http://purl.org/dc/elements/1.1/"
   xmlns:cc="http://creativecommons.org/ns#"
   xmlns:rdf="http://www.w3.org/1999/02/22-rdf-syntax-ns#"
   xmlns:svg="http://www.w3.org/2000/svg"
   xmlns="http://www.w3.org/2000/svg"
   viewBox="0 0 793.70667 1122.52"
   height="1122.52"
   width="793.70667"
   xml:space="preserve"
   id="svg2"
   version="1.1"><metadata
     id="metadata8"><rdf:RDF><cc:Work
         rdf:about=""><dc:format>image/svg+xml</dc:format><dc:type
           rdf:resource="http://purl.org/dc/dcmitype/StillImage" /></cc:Work></rdf:RDF></metadata><defs
     id="defs6"><clipPath
       id="clipPath26"
       clipPathUnits="userSpaceOnUse"><path
         id="path24"
         d="M 0,841.89 H 595.28 V 0 H 0 Z" /></clipPath></defs><g
     transform="matrix(1.3333333,0,0,-1.3333333,0,1122.52)"
     id="g10"><path
       id="path12"
       style="fill:#767676;fill-opacity:1;fill-rule:nonzero;stroke:none"
       d="m 170.729,362.146 h 31.79 v 13.268 h -31.79 z m 32.298,-1.016 H 170.22 l -0.508,0.508 v 14.283 l 0.508,0.508 h 32.807 l 0.508,-0.508 v -14.283 z" /><path
       id="path14"
       style="fill:#767676;fill-opacity:1;fill-rule:nonzero;stroke:none"
       d="m 187.132,356.038 h -1.017 v 25.002 h 1.017 z" /><g
       transform="translate(165.3281,337.9912)"
       id="g16"><path
         id="path18"
         style="fill:#767676;fill-opacity:1;fill-rule:nonzero;stroke:none"
         d="M 0,0 -0.943,0.381 4.67,14.355 5.613,13.977 Z" /></g><g
       id="g20"><g
         clip-path="url(#clipPath26)"
         id="g22"><g
           transform="translate(207.312,335.7139)"
           id="g28"><path
             id="path30"
             style="fill:#767676;fill-opacity:1;fill-rule:nonzero;stroke:none"
             d="m 0,0 h -16.75 c -4.767,0 -8.317,1.168 -10.553,3.473 -3.38,3.484 -3.215,8.937 -3.094,12.92 0.021,0.712 0.042,1.388 0.042,2.009 h 1.016 c 0,-0.631 -0.021,-1.316 -0.042,-2.039 -0.121,-4.013 -0.273,-9.008 2.808,-12.181 2.037,-2.102 5.342,-3.166 9.823,-3.166 l 16.75,0 z" /></g><g
           transform="translate(193.5879,342.3467)"
           id="g32"><path
             id="path34"
             style="fill:#767676;fill-opacity:1;fill-rule:nonzero;stroke:none"
             d="m 0,0 c -0.091,0.035 -2.236,0.891 -4.103,3.414 -1.745,2.361 -2.19,4.869 -2.208,4.975 l 1.002,0.172 C -5.305,8.537 -4.881,6.178 -3.285,4.02 -1.603,1.744 0.351,0.953 0.37,0.945 Z" /></g><g
           transform="translate(207.1523,343.1025)"
           id="g36"><path
             id="path38"
             style="fill:#767676;fill-opacity:1;fill-rule:nonzero;stroke:none"
             d="M 0,0 C -0.125,0.039 -3.105,0.982 -5.91,3.566 -8.746,6.18 -9.771,9.18 -9.813,9.307 l 0.964,0.322 C -8.839,9.602 -7.856,6.742 -5.221,4.314 -2.583,1.885 0.273,0.98 0.301,0.971 Z" /></g><path
           id="path40"
           style="fill:#767676;fill-opacity:1;fill-rule:nonzero;stroke:none"
           d="m 264.628,375.286 h -41.381 v 1.016 h 41.381 z" /><path
           id="path42"
           style="fill:#767676;fill-opacity:1;fill-rule:nonzero;stroke:none"
           d="m 264.628,360.181 h -41.381 v 1.016 h 41.381 z" /><path
           id="path44"
           style="fill:#767676;fill-opacity:1;fill-rule:nonzero;stroke:none"
           d="m 261.77,367.733 h -35.665 v 1.016 h 35.665 z" /><g
           transform="translate(222.1929,347.0693)"
           id="g46"><path
             id="path48"
             style="fill:#767676;fill-opacity:1;fill-rule:nonzero;stroke:none"
             d="m 0,0 -0.459,0.906 c 13.585,6.887 21.695,19.225 21.695,33.006 h 1.017 C 22.253,19.74 13.934,7.062 0,0" /></g><g
           transform="translate(265.6821,347.0693)"
           id="g50"><path
             id="path52"
             style="fill:#767676;fill-opacity:1;fill-rule:nonzero;stroke:none"
             d="m 0,0 c -6.396,3.242 -11.792,7.795 -15.606,13.172 l 0.829,0.588 C -11.059,8.52 -5.79,4.074 0.459,0.906 Z" /></g><path
           id="path54"
           style="fill:#767676;fill-opacity:1;fill-rule:nonzero;stroke:none"
           d="m 244.446,335.056 h -1.017 v 25.479 h 1.017 z" /><g
           transform="translate(293.2397,357.3682)"
           id="g56"><path
             id="path58"
             style="fill:#767676;fill-opacity:1;fill-rule:nonzero;stroke:none"
             d="m 0,0 h -11.405 l -0.414,0.803 9.992,14.064 0.828,-0.588 -9.421,-13.263 h 9.428 L -3.05,3.873 -2.226,4.469 0.413,0.805 Z" /></g><g
           transform="translate(285.5059,363.4033)"
           id="g60"><path
             id="path62"
             style="fill:#767676;fill-opacity:1;fill-rule:nonzero;stroke:none"
             d="M 0,0 -3.4,4.244 -3.425,4.846 3.546,15.174 4.389,14.604 -2.373,4.588 0.793,0.635 Z" /></g><g
           transform="translate(324.04,357.3682)"
           id="g64"><path
             id="path66"
             style="fill:#767676;fill-opacity:1;fill-rule:nonzero;stroke:none"
             d="m 0,0 h -11.404 l -0.415,0.803 9.603,13.517 0.829,-0.59 -9.033,-12.714 h 9.428 L -3.05,3.873 -2.226,4.469 0.413,0.805 Z" /></g><g
           transform="translate(316.3076,363.3994)"
           id="g68"><path
             id="path70"
             style="fill:#767676;fill-opacity:1;fill-rule:nonzero;stroke:none"
             d="M 0,0 -3.507,4.338 -3.533,4.943 3.438,15.268 4.28,14.699 -2.479,4.686 0.791,0.641 Z" /></g><path
           id="path72"
           style="fill:#767676;fill-opacity:1;fill-rule:nonzero;stroke:none"
           d="m 298.56,358.548 h 8.268 v 15.807 h -8.268 z m 8.776,-1.018 h -9.285 l -0.508,0.51 v 16.822 l 0.508,0.508 h 9.285 l 0.508,-0.508 V 358.04 Z" /><path
           id="path74"
           style="fill:#767676;fill-opacity:1;fill-rule:nonzero;stroke:none"
           d="m 307.336,365.942 h -9.285 v 1.018 h 9.285 z" /><g
           transform="translate(298.5596,371.6592)"
           id="g76"><path
             id="path78"
             style="fill:#767676;fill-opacity:1;fill-rule:nonzero;stroke:none"
             d="M 0,0 H -1.017 V 3.373 L 3.331,9.152 4.144,8.541 0,3.033 Z" /></g><path
           id="path80"
           style="fill:#767676;fill-opacity:1;fill-rule:nonzero;stroke:none"
           d="m 324.049,349.019 h -42.711 v 1.016 h 42.711 z" /><path
           id="path82"
           style="fill:#767676;fill-opacity:1;fill-rule:nonzero;stroke:none"
           d="m 303.201,335.04 h -1.016 v 20.637 h 1.016 z" /><g
           transform="translate(281.8862,338.0771)"
           id="g84"><path
             id="path86"
             style="fill:#767676;fill-opacity:1;fill-rule:nonzero;stroke:none"
             d="m 0,0 -0.103,1.012 c 0.053,0.004 5.427,0.59 11.697,3.925 6.244,3.325 8.78,6.68 8.805,6.713 l 0.817,-0.603 C 21.11,10.902 18.541,7.484 12.072,4.041 5.615,0.604 0.227,0.021 0,0" /></g><g
           transform="translate(323.5,338.0771)"
           id="g88"><path
             id="path90"
             style="fill:#767676;fill-opacity:1;fill-rule:nonzero;stroke:none"
             d="m 0,0 c -0.226,0.021 -5.614,0.604 -12.07,4.041 -6.471,3.443 -9.039,6.861 -9.145,7.006 l 0.817,0.603 c 0.025,-0.033 2.56,-3.388 8.804,-6.713 C -5.323,1.602 0.051,1.016 0.104,1.012 Z" /></g><path
           id="path92"
           style="fill:#767676;fill-opacity:1;fill-rule:nonzero;stroke:none"
           d="m 377.379,367.333 h -29.746 v 1.016 h 29.746 z" /><path
           id="path94"
           style="fill:#767676;fill-opacity:1;fill-rule:nonzero;stroke:none"
           d="m 373.991,352.614 h -26.476 v 1.016 h 26.476 z" /><path
           id="path96"
           style="fill:#767676;fill-opacity:1;fill-rule:nonzero;stroke:none"
           d="m 381.924,336.276 h -42.703 v 1.016 h 42.703 z" /><path
           id="path98"
           style="fill:#767676;fill-opacity:1;fill-rule:nonzero;stroke:none"
           d="m 361.08,336.946 h -1.016 v 42.973 h 1.016 z" /><g
           transform="translate(339.4844,357.6045)"
           id="g100"><path
             id="path102"
             style="fill:#767676;fill-opacity:1;fill-rule:nonzero;stroke:none"
             d="m 0,0 -0.527,0.869 c 6.423,3.897 10.16,11.135 10.254,19.86 l 1.016,-0.012 C 10.646,11.635 6.73,4.082 0,0" /></g><path
           id="path104"
           style="fill:#767676;fill-opacity:1;fill-rule:nonzero;stroke:none"
           d="m 412.559,337.081 h 18.908 v 14.506 h -18.908 z m 19.416,-1.016 h -19.924 l -0.508,0.508 v 15.522 l 0.508,0.508 h 19.924 l 0.508,-0.508 v -15.522 z" /><g
           transform="translate(393.5742,334.9443)"
           id="g106"><path
             id="path108"
             style="fill:#767676;fill-opacity:1;fill-rule:nonzero;stroke:none"
             d="m 0,0 -0.435,0.92 c 5.241,2.478 9.808,9.721 10.398,16.486 l 1.014,-0.088 C 10.357,10.227 5.536,2.619 0,0" /></g><g
           transform="translate(403.4766,371.5303)"
           id="g110"><path
             id="path112"
             style="fill:#767676;fill-opacity:1;fill-rule:nonzero;stroke:none"
             d="m 0,0 -9.94,6.369 0.548,0.856 9.941,-6.37 z" /></g><g
           transform="translate(402.0742,359.7686)"
           id="g114"><path
             id="path116"
             style="fill:#767676;fill-opacity:1;fill-rule:nonzero;stroke:none"
             d="M 0,0 -9.494,6.084 -8.945,6.939 0.549,0.855 Z" /></g><path
           id="path118"
           style="fill:#767676;fill-opacity:1;fill-rule:nonzero;stroke:none"
           d="m 435.654,363.009 h -27.499 v 1.016 h 27.499 z" /><path
           id="path120"
           style="fill:#767676;fill-opacity:1;fill-rule:nonzero;stroke:none"
           d="m 422.521,352.095 h -1.018 v 22.723 h 1.018 z" /><g
           transform="translate(409.8135,373.1377)"
           id="g122"><path
             id="path124"
             style="fill:#767676;fill-opacity:1;fill-rule:nonzero;stroke:none"
             d="m 0,0 -0.017,1.016 c 0.057,0.002 5.68,0.107 12.059,1.431 7.012,1.455 11.46,3.451 11.504,3.471 l 0.42,-0.926 C 23.921,4.971 19.368,2.93 12.249,1.451 5.771,0.107 0.058,0 0,0" /></g><g
           transform="translate(227.1465,337.1729)"
           id="g126"><path
             id="path128"
             style="fill:#767676;fill-opacity:1;fill-rule:nonzero;stroke:none"
             d="m 0,0 -0.476,0.898 c 4.911,2.602 8.803,5.725 12.21,9.803 l -5.098,4.256 0.652,0.781 5.485,-4.58 0.068,-0.713 C 9.27,6.068 5.189,2.748 0,0" /></g><g
           transform="translate(260.728,337.1729)"
           id="g130"><path
             id="path132"
             style="fill:#767676;fill-opacity:1;fill-rule:nonzero;stroke:none"
             d="m 0,0 c -5.189,2.75 -9.269,6.068 -12.841,10.445 l 0.068,0.713 5.486,4.58 0.651,-0.781 -5.097,-4.256 C -8.327,6.623 -4.435,3.5 0.476,0.898 Z" /></g><g
           transform="translate(450.1006,500.2886)"
           id="g134"><path
             id="path136"
             style="fill:#767676;fill-opacity:1;fill-rule:nonzero;stroke:none"
             d="m 0,0 c -5.362,0 -10.806,-1.139 -15.985,-3.538 -9.211,-4.265 -16.209,-11.861 -19.706,-21.39 -3.247,-8.847 -3.115,-18.375 0.335,-27.065 0.403,3.993 2.207,12.315 10.144,16.194 9.686,4.733 18.74,0.409 22.606,-1.437 l 0.455,-0.216 35.547,17.534 C 26.567,-7.279 13.55,0 0,0 m -15.972,-34.681 c -2.77,0 -5.754,-0.546 -8.795,-2.031 -8.527,-4.168 -9.558,-13.817 -9.673,-16.666 l 31.127,15.353 c -2.57,1.224 -7.198,3.344 -12.659,3.344 m -18.316,-19.756 c 4.302,-8.988 11.806,-15.816 21.179,-19.256 9.529,-3.498 19.848,-3.074 29.059,1.191 7.463,3.456 13.463,9.071 17.381,16.259 l -35.48,17.659 z m 34.293,-22.62 c -4.535,0 -9.08,0.801 -13.464,2.41 -9.784,3.59 -17.583,10.775 -21.964,20.232 -4.379,9.457 -4.812,20.054 -1.223,29.837 3.591,9.784 10.777,17.583 20.233,21.963 18.918,8.759 41.299,1.164 50.954,-17.292 l -0.226,-0.692 -35.319,-17.42 35.257,-17.547 0.223,-0.692 C 30.461,-63.865 24.202,-69.801 16.378,-73.425 11.157,-75.842 5.591,-77.057 0.005,-77.057" /></g><g
           transform="translate(176.5376,499.728)"
           id="g138"><path
             id="path140"
             style="fill:#767676;fill-opacity:1;fill-rule:nonzero;stroke:none"
             d="m 0,0 v -48.643 c 7.074,8.21 11.09,17.429 11.131,26.128 C 11.172,-13.821 7.328,-6.057 0,0 m -12.447,-61.01 11.43,-13.57 v 23.291 c -2.572,-2.736 -5.483,-5.342 -8.696,-7.758 -0.894,-0.673 -1.806,-1.327 -2.734,-1.963 m -52.439,60.678 v -75.131 c 18.892,0.091 36.78,5.264 50.933,14.663 z m -0.508,-76.148 -0.508,0.508 V 1.061 l 0.897,0.328 51.9,-61.618 c 0.944,0.646 1.872,1.311 2.781,1.995 3.481,2.616 6.597,5.455 9.307,8.442 V 1.061 l 0.822,0.401 C 7.923,-4.888 12.191,-13.181 12.148,-22.52 12.104,-31.769 7.708,-41.57 0,-50.18 v -25.792 l -0.897,-0.328 -12.397,14.718 c -14.461,-9.635 -32.779,-14.898 -52.1,-14.898" /></g><g
           transform="translate(249.8037,500.2808)"
           id="g142"><path
             id="path144"
             style="fill:#767676;fill-opacity:1;fill-rule:nonzero;stroke:none"
             d="m 0,0 c -20.958,0 -38.008,-17.05 -38.008,-38.008 0,-20.958 17.05,-38.009 38.008,-38.009 20.958,0 38.009,17.051 38.009,38.009 C 38.009,-17.05 20.958,0 0,0 m 0,-77.033 c -21.519,0 -39.025,17.506 -39.025,39.025 0,21.518 17.506,39.025 39.025,39.025 21.519,0 39.025,-17.507 39.025,-39.025 0,-21.519 -17.506,-39.025 -39.025,-39.025" /></g><g
           transform="translate(323.2373,499.9878)"
           id="g146"><path
             id="path148"
             style="fill:#767676;fill-opacity:1;fill-rule:nonzero;stroke:none"
             d="m 0,0 c -7.13,-3.521 -11.337,-10.263 -11.3,-18.183 0.026,-5.157 1.244,-12.619 11.304,-18.426 z m 1.51,-37.482 57.975,-34.719 c -5.314,5.413 -12.564,16.159 -12.564,34.486 0,15.021 4.892,24.803 8.998,30.364 1.207,1.636 2.412,3.009 3.529,4.143 z M 0.004,-38.38 c -7.737,-4.768 -11.333,-10.917 -11.304,-19.284 0.028,-7.29 4.439,-14.173 11.308,-17.748 z m 0.294,-38.311 c -7.633,3.623 -12.584,11.09 -12.614,19.024 -0.032,8.77 3.729,15.201 11.819,20.172 -8.012,4.605 -11.777,10.764 -11.819,19.308 -0.041,8.595 4.674,15.867 12.615,19.453 L 1.017,0.802 1.021,-36.591 64.573,1.006 c 0.238,0.146 0.38,0.225 0.41,0.242 l 0.502,-0.884 -0.23,-0.137 c -2.014,-1.235 -17.318,-11.514 -17.318,-37.942 0,-26.037 14.814,-36.377 17.209,-37.876 l 0.341,-0.205 -0.504,-0.883 c -0.012,0.008 -0.117,0.066 -0.299,0.179 L 1.021,-38.374 1.024,-76.232 Z" /></g><g
           transform="translate(409.8291,460.5063)"
           id="g150"><path
             id="path152"
             style="fill:#bb4d43;fill-opacity:1;fill-rule:nonzero;stroke:none"
             d="m 0,0 c -0.472,10.754 3.272,21.049 10.544,28.987 7.271,7.937 17.197,12.569 27.952,13.04 l 0.155,-3.563 C 28.851,38.034 19.802,33.813 13.175,26.577 6.547,19.342 3.134,9.958 3.563,0.156 Z" /></g><g
           transform="translate(324.6621,460.9731)"
           id="g154"><path
             id="path156"
             style="fill:#6fb438;fill-opacity:1;fill-rule:nonzero;stroke:none"
             d="m 0,0 -1.816,3.07 45.795,27.091 1.816,-3.07 z" /></g><g
           transform="translate(146.4277,456.1226)"
           id="g158"><path
             id="path160"
             style="fill:#007ac1;fill-opacity:1;fill-rule:nonzero;stroke:none"
             d="M 0,0 -34.278,40.696 -31.55,42.994 2.728,2.298 Z" /></g><g
           transform="translate(213.0703,462.2725)"
           id="g162"><path
             id="path164"
             style="fill:#b28351;fill-opacity:1;fill-rule:nonzero;stroke:none"
             d="m 0,0 h -3.566 c 0,10.55 4.048,20.525 11.4,28.088 C 15.49,35.963 25.752,40.3 36.733,40.3 V 36.733 C 26.725,36.733 17.37,32.78 10.393,25.602 3.691,18.708 0,9.616 0,0" /></g></g></g></g></svg>