<svg xmlns="http://www.w3.org/2000/svg" viewBox="0 0 226.45 172.28"><title>noknok_logo</title><g id="圖層_2" data-name="圖層 2"><g id="レイヤー_1" data-name="レイヤー 1"><path d="M80.06,125.35c8.26,0,13.38-5.17,13.38-13.22,0-7.18-5.17-12.3-12.4-12.3-8.31,0-13.38,5.32-13.38,13.33C67.66,120.39,72.78,125.35,80.06,125.35Zm.67-18.13c2.89,0,4.8,2.38,4.8,5.58,0,3.56-1.91,6-5.21,6-2.89,0-4.65-2.38-4.65-5.48C75.67,109.75,77.37,107.22,80.73,107.22Z"/><path d="M115.74,110.83a2.44,2.44,0,0,1-.46-1.18,2,2,0,0,1,.72-1.29l6.51-7.08c.25-.31.41-.52.41-.72,0-.36-.31-.42-.93-.42h-5.68a2.79,2.79,0,0,0-2.58,1.14l-4.81,5.27c-.36.36-.56.51-.72.51s-.29-.28-.31-.84V97.65a1.15,1.15,0,0,0-1.15-1.16h-5.23a1.16,1.16,0,0,0-1.16,1.16v26.23a1.16,1.16,0,0,0,1.16,1.16h5.23a1.15,1.15,0,0,0,1.15-1.16V118c0-.75.16-1,.93-1.87.36-.36.57-.56.77-.56s.42.2.68.67l4.33,7.43a2.08,2.08,0,0,0,2.33,1.35h5.47c.78,0,1.14-.11,1.14-.47a2.44,2.44,0,0,0-.36-.88Z"/><path d="M156.22,111.14v12.35c0,1.29.25,1.55,1.55,1.55h4.7c1.29,0,1.54-.26,1.54-1.55V110.11c0-7.33-3.82-10.28-8.88-10.28a13.11,13.11,0,0,0-6.35,1.61,1.76,1.76,0,0,1-.52.2c-.13,0-.22-.09-.25-.34v-.06s0,0,0-.06h0a1.15,1.15,0,0,0-1.14-1.07h-4.93a1.16,1.16,0,0,0-1.16,1.16v22.61a1.16,1.16,0,0,0,1.16,1.16h5.5a1.16,1.16,0,0,0,1.16-1.16V109.39c.08-.84.4-1.2,1.38-1.55a7.4,7.4,0,0,1,2.68-.52C154.82,107.32,156.22,108.51,156.22,111.14Z"/><path d="M196.34,112.13c0-7.18-5.17-12.3-12.4-12.3-8.31,0-13.37,5.32-13.37,13.33,0,7.23,5.11,12.19,12.39,12.19C191.23,125.35,196.34,120.18,196.34,112.13Zm-13.12,6.66c-2.89,0-4.65-2.38-4.65-5.48,0-3.56,1.71-6.09,5.06-6.09,2.9,0,4.81,2.38,4.81,5.58C188.44,116.36,186.53,118.79,183.22,118.79Z"/><path d="M75.56,143.83a7,7,0,0,0-7.36,7.4c0,3.41,2.22,7.28,7,7.28A7.07,7.07,0,0,0,82.59,151C82.59,147.65,80.4,143.83,75.56,143.83Zm-.21,11.55c-2.69,0-3.75-2.14-3.75-4.13,0-2.48,1.55-4.13,3.83-4.13,2.67,0,3.74,2.18,3.74,4.13A3.8,3.8,0,0,1,75.35,155.38Z"/><path d="M90.46,148.08a5.27,5.27,0,0,0-2.27.5.94.94,0,0,1-.38.16c-.1,0-.15-.09-.15-.21s-.14-.34-.42-.34h-1.9c-.53,0-.63.1-.63.63v13c0,.53.1.63.63.63h1.92c.53,0,.63-.1.63-.63v-2.72c0-.43.15-.53.66-.55,2.25-.09,6.13-1.19,6.13-5.62C94.68,149.83,92.86,148.08,90.46,148.08Zm-2.08,7.72c-.38,0-.49-.12-.49-.5v-3.21a.71.71,0,0,1,.58-.83,2.42,2.42,0,0,1,.93-.19,1.89,1.89,0,0,1,2,2.11C91.43,155.21,89.71,155.8,88.38,155.8Z"/><path d="M101.65,148.06c-3.28,0-5.26,2.51-5.26,5.57,0,2.55,1.45,4.88,5.13,4.88a10,10,0,0,0,3.3-.49c.48-.17.59-.32.59-.82v-1.3c0-.36-.06-.51-.25-.51a.92.92,0,0,0-.36.09,7.69,7.69,0,0,1-2.54.38c-1.33,0-2.07-.3-2.46-.87a1,1,0,0,1-.17-.38c0-.15.15-.22.49-.22h5.12c.53,0,.63-.1.68-.63,0-.28,0-.55,0-.81C105.94,149.34,104.29,148.06,101.65,148.06Zm.84,4.26h-2.3c-.31,0-.46-.06-.46-.21a.87.87,0,0,1,.17-.38,1.91,1.91,0,0,1,1.75-.89,1.28,1.28,0,0,1,1.27.83,1,1,0,0,1,.08.38C103,152.26,102.85,152.32,102.49,152.32Z"/><path d="M114.18,148.05a5.31,5.31,0,0,0-2.6.66.71.71,0,0,1-.21.08c-.06,0-.11,0-.11-.19s-.12-.41-.46-.41h-1.86c-.53,0-.63.1-.63.63v8.92c0,.52.1.63.63.63h1.92c.53,0,.63-.11.63-.63v-5.59a.7.7,0,0,1,.58-.82,3,3,0,0,1,1.1-.21,1.36,1.36,0,0,1,1.46,1.56v5.06c0,.52.1.63.63.63h1.92c.53,0,.64-.11.64-.63v-5.48C117.82,149.26,116.25,148.05,114.18,148.05Z"/><path d="M128.42,148.06a8.64,8.64,0,0,0-3.1.54c-.47.19-.58.32-.58.85v1.45c0,.36.05.51.24.51a1.33,1.33,0,0,0,.36-.1,7.43,7.43,0,0,1,2.7-.49,1.87,1.87,0,0,1,1.42.38.73.73,0,0,1,.21.4c0,.13-.15.21-.45.23-3.12.3-5.39,1.32-5.39,3.75,0,2,1.4,2.93,3.32,2.93a5.08,5.08,0,0,0,2.5-.64.49.49,0,0,1,.19-.06c.08,0,.1.08.1.23s.09.33.36.33h1.85c.53,0,.63-.11.63-.63v-5.61C132.78,149,131.31,148.06,128.42,148.06Zm1.33,6.89c0,.53-.1.66-.59.83a3.69,3.69,0,0,1-1.2.21c-.57,0-1-.17-1-.68s1-1,2.2-1.2a1.12,1.12,0,0,1,.27,0c.3,0,.36.13.36.55Z"/><path d="M145.32,148.05a5.31,5.31,0,0,0-2.6.66.83.83,0,0,1-.21.08c-.07,0-.11,0-.11-.19s-.13-.41-.46-.41h-1.86c-.53,0-.64.1-.64.63v8.92c0,.52.11.63.64.63H142c.52,0,.63-.11.63-.63v-5.59a.7.7,0,0,1,.57-.82,3,3,0,0,1,1.1-.21,1.36,1.36,0,0,1,1.46,1.56v5.06c0,.52.11.63.64.63h1.92c.53,0,.63-.11.63-.63v-5.48C149,149.26,147.39,148.05,145.32,148.05Z"/><path d="M156.19,148.06c-3.27,0-5.25,2.51-5.25,5.57,0,2.55,1.45,4.88,5.12,4.88a9.9,9.9,0,0,0,3.3-.49c.49-.17.6-.32.6-.82v-1.3c0-.36-.07-.51-.26-.51a1,1,0,0,0-.36.09,7.63,7.63,0,0,1-2.53.38c-1.34,0-2.08-.3-2.46-.87a1,1,0,0,1-.17-.38c0-.15.15-.22.49-.22h5.12c.52,0,.63-.1.67-.63,0-.28,0-.55,0-.81C160.48,149.34,158.84,148.06,156.19,148.06Zm.85,4.26h-2.3c-.31,0-.46-.06-.46-.21a.87.87,0,0,1,.17-.38,1.91,1.91,0,0,1,1.75-.89,1.26,1.26,0,0,1,1.26.83.9.9,0,0,1,.09.38C157.55,152.26,157.4,152.32,157,152.32Z"/><path d="M178,148.19h-2.08c-.55,0-.65.08-.84.59l-1.35,3.74c-.09.23-.13.34-.24.34s-.16-.11-.27-.3l-2-3.86c-.23-.45-.36-.51-.85-.51h0c-.48,0-.61.06-.84.51l-2,3.86c-.11.19-.17.3-.28.3s-.15-.11-.23-.34l-1.39-3.76c-.19-.51-.3-.57-.85-.57h-2.18c-.33,0-.48,0-.48.23a1.07,1.07,0,0,0,.08.38l3.43,9c.19.5.31.61.86.61h.47c.55,0,.67-.09.93-.57l2.17-4.29c.13-.25.19-.34.3-.34s.19.13.3.34l2.17,4.29c.26.48.38.57.93.57h.49c.55,0,.67-.11.86-.61l3.39-9a1,1,0,0,0,.08-.36C178.49,148.25,178.34,148.19,178,148.19Z"/><path d="M192.6,143.41h-1.92c-.53,0-.63.1-.63.63v3.53c0,.34-.11.49-.41.49-2.54,0-6.38,1.09-6.38,5.53,0,3.1,1.79,4.92,4.2,4.92a5.25,5.25,0,0,0,2.38-.55c.19-.12.23-.14.31-.14s.11.06.11.21.15.34.42.34h1.92c.53,0,.63-.11.63-.63V144C193.23,143.51,193.13,143.41,192.6,143.41Zm-2.55,11.39c0,.49-.13.66-.6.85a2.49,2.49,0,0,1-.93.19,1.91,1.91,0,0,1-2-2.16c0-2,1.82-2.59,3-2.59.38,0,.51.21.51.62Z"/><path d="M200.85,148.06a5.1,5.1,0,0,0-5.48,5.45,4.81,4.81,0,0,0,5.08,5,5.07,5.07,0,0,0,5.47-5.42A4.85,4.85,0,0,0,200.85,148.06Zm-.29,7.76a2,2,0,0,1-1.91-2.25c0-1.46.7-2.5,2.07-2.5a2.06,2.06,0,0,1,2,2.29C202.69,154.82,201.91,155.82,200.56,155.82Z"/><path d="M213.11,148.06a5.1,5.1,0,0,0-5.48,5.45,4.81,4.81,0,0,0,5.07,5,5.07,5.07,0,0,0,5.47-5.42A4.85,4.85,0,0,0,213.11,148.06Zm-.3,7.76a2,2,0,0,1-1.9-2.25c0-1.46.69-2.5,2.07-2.5a2.06,2.06,0,0,1,2,2.29C215,154.82,214.16,155.82,212.81,155.82Z"/><path d="M226.06,148.15a1.87,1.87,0,0,0-.29,0,5.56,5.56,0,0,0-2,.76.73.73,0,0,1-.34.12c-.13,0-.19-.12-.23-.38-.09-.44-.17-.48-.61-.48h-1.65c-.52,0-.63.1-.63.63v8.92c0,.52.11.63.63.63h2c.53,0,.64-.11.64-.63V152.5c0-.51.1-.68.55-.87a4.38,4.38,0,0,1,1.71-.38c.55,0,.63-.1.63-.65v-1.9C226.44,148.3,226.36,148.15,226.06,148.15Z"/><path d="M26.66,147.26a1.9,1.9,0,0,1-.51-1.12V142h0v-9.32a.92.92,0,0,0-1.55-.67L18.27,138a1.88,1.88,0,0,0-.59,1.36V142h0v7a2,2,0,0,0,.45,1.51s0,.05,0,.07L41,171.51a2.92,2.92,0,0,0,2,.77h9.32a.6.6,0,0,0,.41-1Z"/><path d="M58.94,81.18l-6.33,5.93A1.88,1.88,0,0,0,52,88.47v18.42q0,1.17-.39,1.17c-.2,0-.46-.19-.91-.65l-25.61-24a1.81,1.81,0,0,0-2.49,0L18.55,87.2a2.73,2.73,0,0,0-.87,2v26h0v10a.92.92,0,0,0,1.55.67l6.33-5.93a1.88,1.88,0,0,0,.59-1.37V97.93q0-1.17.39-1.17c.2,0,.46.19.92.65l25.59,24a1.81,1.81,0,0,0,2.49,0l4.09-3.83a2.74,2.74,0,0,0,.86-2V93.1h0V81.85A.92.92,0,0,0,58.94,81.18Z"/><rect y="51.39" width="27.6" height="8.4" rx="1.16"/><rect x="33.8" y="-0.17" width="8.4" height="27.6" rx="1.16" transform="translate(-1.72 20.82) rotate(-30)"/><rect x="16.08" y="17.54" width="8.4" height="27.6" rx="1.16" transform="translate(-17.01 33.23) rotate(-60)"/><path d="M226.45,124.42a2.2,2.2,0,0,0-.37-.88l-7.43-12.86a2.54,2.54,0,0,1-.47-1.19c0-.41.26-.77.73-1.29l6.5-7.07c.26-.31.42-.52.42-.73,0-.36-.31-.41-.93-.41h-5.68a2.81,2.81,0,0,0-2.59,1.14l-4.8,5.26c-.36.37-.57.52-.72.52s-.31-.31-.31-.93V60.27a2.54,2.54,0,0,0-.68-2L185.88,35.54a2.27,2.27,0,0,0-1.55-.61h-3.72a2.24,2.24,0,0,0-1.55.62L165.63,48.14l-13.44-12.6a2.27,2.27,0,0,0-1.55-.61h-3.72a2.24,2.24,0,0,0-1.55.62L131.94,48.14,118.5,35.54a2.27,2.27,0,0,0-1.54-.61h-3.73a2.24,2.24,0,0,0-1.55.62L98.26,48.14,84.81,35.54a2.27,2.27,0,0,0-1.54-.61H79.54a2.26,2.26,0,0,0-1.55.62l-24.47,23,0,0A7.47,7.47,0,0,0,52.37,60a1.86,1.86,0,0,0-.24.49h0a.83.83,0,0,0,0,.15q0,.18-.06.27s0,0,0,0V74.25a.92.92,0,0,0,1.55.67L59.9,69a1.86,1.86,0,0,0,.3-.38,1.11,1.11,0,0,0,.29-.75V63.27A1.93,1.93,0,0,1,61,61.93L80.71,43.48a1,1,0,0,1,1.39,0l21.75,20.36a1.16,1.16,0,0,0,1.64-.06l3.62-3.87a1.17,1.17,0,0,0,0-1.64l-5.23-4.9,10.57-9.89a1,1,0,0,1,1.39,0l21.75,20.36a1.16,1.16,0,0,0,1.64-.06l3.62-3.87a1.17,1.17,0,0,0-.05-1.64l-5.23-4.9,10.57-9.89a1,1,0,0,1,1.38,0l21.76,20.36a1.14,1.14,0,0,0,1.63-.06l3.63-3.87a1.17,1.17,0,0,0-.06-1.64l-5.22-4.9,10.56-9.89a1,1,0,0,1,1.39,0l19.89,18.61a.66.66,0,0,1,.2.48v61.31a1.16,1.16,0,0,0,1.16,1.16h5.23a1.16,1.16,0,0,0,1.16-1.16v-5.66a2.42,2.42,0,0,1,.93-2.22c.36-.36.56-.57.77-.57s.41.21.67.67l4.34,7.44a2.06,2.06,0,0,0,2.33,1.34h5.47C226.08,124.88,226.45,124.78,226.45,124.42Z"/></g></g></svg>